<?xml version="1.0" encoding="UTF-8"?>
<svg width="115.73mm" height="131.59mm" version="1.1" viewBox="0 0 410.07954 466.2789" xmlns="http://www.w3.org/2000/svg" xmlns:cc="http://creativecommons.org/ns#" xmlns:dc="http://purl.org/dc/elements/1.1/" xmlns:rdf="http://www.w3.org/1999/02/22-rdf-syntax-ns#">
<metadata>
<rdf:RDF>
<cc:Work rdf:about="">
<dc:format>image/svg+xml</dc:format>
<dc:type rdf:resource="http://purl.org/dc/dcmitype/StillImage"/>
<dc:title/>
</cc:Work>
</rdf:RDF>
</metadata>
<g transform="translate(-290.91 -425.73)">
<rect x="297.34" y="424.42" width="397.22" height="467.16" fill="none"/>
<g transform="translate(1.892e-6)">
<path d="m519.34 764.27c0 25.735-11.547 119.26-25.791 119.26-14.244 0-25.791-93.521-25.791-119.26s11.547-46.597 25.791-46.597c14.244 0 25.791 20.862 25.791 46.597z" fill="#00d4aa" stroke="#000" stroke-width="8"/>
<g transform="translate(8.8349e-6)" fill="#00d4aa" stroke="#000" stroke-width="8">
<path d="m379.59 661.64c-20.385-10.185-86.209-63.723-76.024-84.108 10.185-20.385 92.522 0.10278 112.91 10.288 20.385 10.185 28.654 34.967 18.469 55.352-10.185 20.385-34.967 28.654-55.352 18.469z"/>
<path d="m612.32 661.64c20.385-10.185 86.209-63.723 76.024-84.108s-92.522 0.10279-112.91 10.288c-20.385 10.185-28.654 34.967-18.469 55.352 10.185 20.385 34.967 28.654 55.352 18.469z"/>
</g>
<g transform="translate(1.2784)" fill="#00d4aa" stroke="#000" stroke-width="8">
<path d="m610.06 736.95c16.539 15.676 63.933 86.053 48.257 102.59-15.676 16.539-88.488-27.023-105.03-42.7-16.539-15.676-17.238-41.792-1.5613-58.331 15.676-16.539 41.792-17.238 58.331-1.5614z"/>
<path d="m379.29 736.95c-16.539 15.676-63.933 86.053-48.257 102.59 15.676 16.539 88.488-27.023 105.03-42.7 16.539-15.676 17.238-41.792 1.5613-58.331-15.676-16.539-41.792-17.238-58.331-1.5614z"/>
</g>
<path d="m547.86 478.3c0 25.697-23.922 119.08-53.432 119.08s-53.432-93.384-53.432-119.08c0-25.697 23.922-46.528 53.432-46.528s53.432 20.831 53.432 46.528z" fill="#00d4aa" stroke="#000" stroke-width="8"/>
<ellipse cx="493.38" cy="685.21" rx="144.68" ry="139.79" fill="#999" stroke="#000" stroke-width="4"/>
<path d="m368.43 753.35 252-137.68" fill="none" stroke="#fff" stroke-width="8"/>
<path d="m493.73 822.98v-276.94" fill="none" stroke="#fff" stroke-width="8"/>
<path d="m620.45 756.1-254.84-140.24" fill="none" stroke="#fff" stroke-width="8"/>
<path transform="matrix(.34428 -.0065715 .0051196 .321 319.84 473.23)" d="m681.15 782.42-101.28 55.795-88.638 49.36-98.958-59.811-87.066-52.083 2.319-115.61 1.5721-101.44 101.28-55.795 88.638-49.36 98.958 59.811 87.066 52.083-2.319 115.61z" fill="#00d4aa" stroke="#fff" stroke-width="24.061"/>
<ellipse cx="493.38" cy="685.21" rx="144.68" ry="139.79" fill="none" stroke="#000" stroke-width="8"/>
</g>
</g>
</svg>
