<?xml version="1.0" encoding="UTF-8"?>
<svg width="115.73mm" height="131.59mm" version="1.1" viewBox="0 0 410.07954 466.2789" xmlns="http://www.w3.org/2000/svg" xmlns:cc="http://creativecommons.org/ns#" xmlns:dc="http://purl.org/dc/elements/1.1/" xmlns:rdf="http://www.w3.org/1999/02/22-rdf-syntax-ns#">
<metadata>
<rdf:RDF>
<cc:Work rdf:about="">
<dc:format>image/svg+xml</dc:format>
<dc:type rdf:resource="http://purl.org/dc/dcmitype/StillImage"/>
<dc:title/>
</cc:Work>
</rdf:RDF>
</metadata>
<g transform="translate(-285.05 -425.29)">
<rect x="297.34" y="424.42" width="397.22" height="467.16" fill="none"/>
<g transform="matrix(-1 0 0 1 980.18 0)">
<path d="m471.72 757.93c-8.2317 24.382-27.206 116.68-13.711 121.24 13.495 4.5562 54.35-80.358 62.582-104.74s3.9646-47.842-9.5309-52.398c-13.495-4.5562-31.109 11.516-39.341 35.899z" fill="#00d4aa" stroke="#000" stroke-width="8"/>
<g transform="translate(8.8349e-6)" fill="#00d4aa" stroke="#000" stroke-width="8">
<path d="m379.16 671.31c-21.707-6.9355-94.968-49.736-88.032-71.443 6.9355-21.707 91.441-14.1 113.15-7.1641 21.707 6.9354 33.681 30.155 26.746 51.861-6.9355 21.707-30.155 33.681-51.861 26.746z"/>
<path d="m609.93 651.38c18.439-13.389 74.595-76.995 61.206-95.434-13.389-18.439-91.253 15.27-109.69 28.659-18.439 13.389-22.533 39.191-9.1441 57.631 13.389 18.439 39.191 22.533 57.631 9.1441z"/>
</g>
<g transform="translate(1.2784)" fill="#00d4aa" stroke="#000" stroke-width="8">
<path d="m607.72 744.58c14.722 17.394 54.12 92.54 36.726 107.26-17.394 14.722-84.994-36.556-99.716-53.95-14.722-17.394-12.555-43.429 4.8391-58.151s43.429-12.555 58.151 4.8391z"/>
<path d="m378.07 715.75c-20.281 10.39-85.562 64.589-75.172 84.87 10.39 20.281 92.516-1.0348 112.8-11.425 20.281-10.39 28.3-35.254 17.91-55.535-10.39-20.281-35.254-28.3-55.535-17.91z"/>
</g>
<path d="m547.86 478.3c0 25.697-23.922 119.08-53.432 119.08s-53.432-93.384-53.432-119.08c0-25.697 23.922-46.528 53.432-46.528s53.432 20.831 53.432 46.528z" fill="#00d4aa" stroke="#000" stroke-width="8"/>
<ellipse cx="493.38" cy="685.21" rx="144.68" ry="139.79" fill="#999" stroke="#000" stroke-width="4"/>
<path d="m368.43 753.35 252-137.68" fill="none" stroke="#fff" stroke-width="8"/>
<path d="m493.73 822.98v-276.94" fill="none" stroke="#fff" stroke-width="8"/>
<path d="m620.45 756.1-254.84-140.24" fill="none" stroke="#fff" stroke-width="8"/>
<path transform="matrix(.34428 -.0065715 .0051196 .321 319.84 473.23)" d="m681.15 782.42-101.28 55.795-88.638 49.36-98.958-59.811-87.066-52.083 2.319-115.61 1.5721-101.44 101.28-55.795 88.638-49.36 98.958 59.811 87.066 52.083-2.319 115.61z" fill="#00d4aa" stroke="#fff" stroke-width="24.061"/>
<ellipse cx="493.38" cy="685.21" rx="144.68" ry="139.79" fill="none" stroke="#000" stroke-width="8"/>
</g>
</g>
</svg>
